<svg id="svg" version="1.1" xmlns="http://www.w3.org/2000/svg" xmlns:xlink="http://www.w3.org/1999/xlink" width="400" height="400" viewBox="0, 0, 400,400"><g id="svgg"><path id="path0" d="M201.000 91.686 C 186.225 91.975,182.487 93.182,178.014 99.110 C 173.936 104.515,173.860 105.081,173.958 129.167 C 174.340 222.580,174.682 261.233,175.146 263.167 C 176.762 269.916,181.102 274.746,187.622 277.051 C 190.891 278.207,220.210 278.244,223.500 277.096 C 229.554 274.984,233.874 270.679,235.992 264.645 L 236.745 262.500 236.700 240.500 C 236.586 184.529,235.987 109.406,235.638 107.333 C 234.965 103.329,233.396 100.365,230.316 97.280 C 226.314 93.271,220.922 91.272,214.500 91.415 C 213.033 91.447,206.958 91.569,201.000 91.686 " stroke="none" fill="#1a8ecd" fill-rule="evenodd"></path><path id="path1" d="M275.359 164.361 C 268.455 166.355,263.164 171.885,261.672 178.667 C 260.765 182.790,261.563 260.237,262.539 262.837 C 264.811 268.885,269.211 273.125,275.167 275.006 C 277.699 275.806,302.188 276.047,307.872 275.328 C 315.602 274.350,321.605 269.339,324.078 261.802 L 324.833 259.500 324.730 220.833 C 324.620 180.014,324.588 179.128,323.084 175.500 C 320.815 170.025,315.836 165.628,310.209 164.130 C 307.282 163.350,278.190 163.543,275.359 164.361 " stroke="none" fill="#ba1d25" fill-rule="evenodd"></path><path id="path2" d="M0.000 200.000 L 0.000 400.000 200.000 400.000 L 400.000 400.000 400.000 200.000 L 400.000 0.000 200.000 0.000 L 0.000 0.000 0.000 200.000 M222.269 91.646 C 229.195 93.859,234.345 99.069,236.127 105.667 C 236.779 108.079,236.891 117.427,237.546 223.916 C 237.784 262.647,237.823 261.210,236.421 265.333 C 234.256 271.703,228.530 276.692,221.711 278.149 C 219.086 278.710,195.874 279.099,191.864 278.650 C 183.239 277.682,175.858 271.236,174.285 263.295 C 173.798 260.837,173.454 224.899,173.298 160.167 L 173.170 106.833 174.028 104.627 C 176.541 98.165,181.214 93.788,187.833 91.698 C 190.943 90.716,219.225 90.674,222.269 91.646 M132.639 145.016 C 140.132 145.956,145.889 150.601,148.508 157.821 C 149.409 160.307,149.340 157.318,150.040 224.589 C 150.380 257.244,150.367 259.491,149.820 261.756 C 148.243 268.289,143.533 273.692,137.500 275.888 C 132.069 277.864,103.283 278.060,99.116 276.149 C 98.539 275.883,97.987 275.667,97.890 275.667 C 96.177 275.667,90.074 269.981,88.729 267.132 C 88.305 266.235,87.818 265.240,87.647 264.923 C 86.432 262.672,86.359 259.731,86.261 209.500 L 86.167 160.500 86.916 158.533 C 90.414 149.353,95.873 145.704,107.333 144.890 C 111.243 144.612,130.168 144.706,132.639 145.016 M310.180 163.507 C 317.110 165.276,322.788 171.178,324.445 178.333 C 324.848 180.073,324.985 184.373,325.143 200.167 C 325.251 210.983,325.428 228.176,325.537 238.372 C 325.745 257.885,325.707 258.611,324.240 262.833 C 322.140 268.877,316.725 273.872,310.500 275.506 C 307.323 276.340,281.492 276.831,277.833 276.127 C 269.688 274.559,264.619 270.144,261.807 262.167 C 260.495 258.447,260.249 180.120,261.538 176.598 C 263.646 170.836,268.490 166.057,274.195 164.108 C 277.183 163.088,306.611 162.596,310.180 163.507 " stroke="none" fill="#fbfbfb" fill-rule="evenodd"></path><path id="path3" d="M107.333 144.890 C 95.873 145.704,90.414 149.353,86.916 158.533 L 86.167 160.500 86.261 209.500 C 86.359 259.731,86.432 262.672,87.647 264.923 C 87.818 265.240,88.305 266.235,88.729 267.132 C 90.074 269.981,96.177 275.667,97.890 275.667 C 97.987 275.667,98.539 275.883,99.116 276.149 C 102.130 277.531,128.273 277.941,134.500 276.704 C 142.081 275.198,147.960 269.461,149.820 261.756 C 150.367 259.491,150.380 257.244,150.040 224.589 C 149.340 157.318,149.409 160.307,148.508 157.821 C 145.889 150.601,140.132 145.956,132.639 145.016 C 130.168 144.706,111.243 144.612,107.333 144.890 M285.000 163.343 C 275.541 163.535,275.148 163.597,271.167 165.527 C 268.359 166.888,264.164 171.131,262.791 174.000 C 260.487 178.813,260.553 177.640,260.792 209.333 C 260.910 225.008,261.017 242.258,261.029 247.667 C 261.056 259.273,261.341 261.478,263.334 265.502 C 266.041 270.966,271.085 274.720,277.261 275.866 C 280.953 276.551,308.711 275.992,311.333 275.180 C 317.644 273.224,321.921 268.905,324.548 261.833 C 325.434 259.446,325.358 182.812,324.465 178.667 C 322.854 171.192,317.311 165.449,309.833 163.506 C 307.725 162.958,304.848 162.939,285.000 163.343 M310.209 164.130 C 315.836 165.628,320.815 170.025,323.084 175.500 C 324.588 179.128,324.620 180.014,324.730 220.833 L 324.833 259.500 324.078 261.802 C 321.605 269.339,315.602 274.350,307.872 275.328 C 302.188 276.047,277.699 275.806,275.167 275.006 C 269.211 273.125,264.811 268.885,262.539 262.837 C 261.563 260.237,260.765 182.790,261.672 178.667 C 263.164 171.885,268.455 166.355,275.359 164.361 C 278.190 163.543,307.282 163.350,310.209 164.130 " stroke="none" fill="#f9cf59" fill-rule="evenodd"></path><path id="path4" d="M187.833 91.698 C 181.214 93.788,176.541 98.165,174.028 104.627 L 173.170 106.833 173.298 160.167 C 173.454 224.899,173.798 260.837,174.285 263.295 C 175.858 271.236,183.239 277.682,191.864 278.650 C 195.874 279.099,219.086 278.710,221.711 278.149 C 228.530 276.692,234.256 271.703,236.421 265.333 C 237.823 261.210,237.784 262.647,237.546 223.916 C 236.891 117.427,236.779 108.079,236.127 105.667 C 234.345 99.069,229.195 93.859,222.269 91.646 C 219.225 90.674,190.943 90.716,187.833 91.698 M220.167 91.960 C 228.408 93.622,234.321 99.497,235.638 107.333 C 235.987 109.406,236.586 184.529,236.700 240.500 L 236.745 262.500 235.992 264.645 C 233.874 270.679,229.554 274.984,223.500 277.096 C 220.210 278.244,190.891 278.207,187.622 277.051 C 181.102 274.746,176.762 269.916,175.146 263.167 C 174.682 261.233,174.340 222.580,173.958 129.167 C 173.860 105.081,173.936 104.515,178.014 99.110 C 182.487 93.182,186.225 91.975,201.000 91.686 C 206.958 91.569,213.033 91.447,214.500 91.415 C 216.000 91.381,218.479 91.620,220.167 91.960 M290.083 163.243 C 290.771 163.315,291.896 163.315,292.583 163.243 C 293.271 163.171,292.708 163.112,291.333 163.112 C 289.958 163.112,289.396 163.171,290.083 163.243 M325.136 207.167 C 325.136 210.283,325.186 211.603,325.248 210.100 C 325.309 208.596,325.310 206.046,325.248 204.433 C 325.187 202.820,325.137 204.050,325.136 207.167 M260.809 222.833 C 260.809 226.867,260.857 228.471,260.916 226.398 C 260.974 224.326,260.974 221.026,260.915 219.065 C 260.856 217.104,260.808 218.800,260.809 222.833 M325.417 233.167 C 325.421 233.900,325.489 234.161,325.569 233.746 C 325.649 233.331,325.646 232.731,325.562 232.413 C 325.479 232.094,325.414 232.433,325.417 233.167 M325.480 249.000 C 325.480 254.042,325.526 256.104,325.583 253.583 C 325.639 251.063,325.639 246.938,325.583 244.417 C 325.526 241.896,325.480 243.958,325.480 249.000 M291.417 276.249 C 293.754 276.306,297.579 276.306,299.917 276.249 C 302.254 276.192,300.342 276.145,295.667 276.145 C 290.992 276.145,289.079 276.192,291.417 276.249 M281.083 276.578 C 281.954 276.647,283.379 276.647,284.250 276.578 C 285.121 276.510,284.408 276.453,282.667 276.453 C 280.925 276.453,280.212 276.510,281.083 276.578 " stroke="none" fill="#9ecfe9" fill-rule="evenodd"></path></g></svg>